<?xml version="1.0" standalone="no"?>
<!DOCTYPE svg PUBLIC "-//W3C//DTD SVG 20010904//EN"
 "http://www.w3.org/TR/2001/REC-SVG-20010904/DTD/svg10.dtd">
<svg version="1.0" xmlns="http://www.w3.org/2000/svg"
 width="50.000000pt" height="50.000000pt" viewBox="0 0 50.000000 50.000000"
 preserveAspectRatio="xMidYMid meet">

<g transform="translate(0.000000,50.000000) scale(0.100000,-0.100000)"
fill="#000000" stroke="none">
<path d="M130 391 l-43 -89 11 -66 c10 -65 7 -106 -9 -106 -26 0 -81 -91 -65
-107 3 -3 11 9 17 27 l12 32 71 -7 c83 -8 89 -11 81 -36 -4 -10 -2 -19 3 -19
11 0 22 47 13 55 -3 4 -6 12 -7 18 -4 43 -34 79 -34 42 0 -16 -27 -20 -46 -7
-6 4 -15 46 -18 93 -7 85 -7 88 30 168 20 44 41 81 45 81 5 0 9 -2 9 -5 0 -16
-24 -112 -30 -120 -4 -5 -10 -26 -12 -45 -3 -19 -8 -44 -12 -55 -8 -20 -7 -20
8 -1 9 11 16 34 16 52 0 38 19 56 27 25 3 -12 9 -21 14 -21 14 0 10 27 -6 43
-11 11 -12 22 -5 48 16 55 13 89 -8 89 -13 0 -31 -26 -62 -89z m48 -287 c39
-8 25 -25 -15 -19 -69 11 -83 15 -83 25 0 8 40 6 98 -6z"/>
<path d="M290 456 c0 -39 12 -86 22 -86 5 0 7 8 4 18 -13 47 -17 82 -8 82 5 0
26 -37 46 -81 37 -80 37 -83 30 -168 -3 -47 -12 -89 -18 -93 -24 -16 -44 -8
-51 21 -3 16 -13 32 -22 35 -16 6 -15 17 4 111 10 50 26 48 34 -5 3 -22 11
-46 19 -53 10 -10 11 -8 5 8 -4 11 -11 38 -14 60 -5 31 -11 41 -27 43 -26 4
-31 -7 -39 -95 -6 -57 -4 -71 9 -82 18 -15 21 -47 5 -56 -6 -4 -8 -13 -5 -21
3 -7 1 -16 -3 -18 -11 -7 -1 -56 11 -56 5 0 7 9 3 19 -8 25 -2 28 81 36 l71 7
12 -32 c6 -18 14 -31 17 -27 3 3 1 22 -6 41 -13 40 -16 41 -104 26 -33 -5 -62
-7 -65 -4 -10 10 24 24 59 25 37 0 89 17 59 18 -24 1 -29 33 -17 107 l11 66
-43 89 c-31 63 -49 89 -62 89 -12 0 -18 -8 -18 -24z"/>
<path d="M85 440 c10 -11 23 -20 28 -20 6 0 2 9 -8 20 -10 11 -23 20 -28 20
-6 0 -2 -9 8 -20z"/>
<path d="M395 440 c-10 -11 -14 -20 -8 -20 5 0 18 9 28 20 10 11 14 20 8 20
-5 0 -18 -9 -28 -20z"/>
<path d="M20 411 c0 -11 59 -36 66 -28 3 3 -8 13 -25 21 -35 18 -41 19 -41 7z"/>
<path d="M437 404 c-16 -9 -26 -18 -23 -21 7 -8 66 17 66 28 0 12 -10 11 -43
-7z"/>
<path d="M25 340 c3 -5 18 -10 33 -10 21 0 24 2 12 10 -20 13 -53 13 -45 0z"/>
<path d="M430 340 c-12 -8 -9 -10 12 -10 15 0 30 5 33 10 8 13 -25 13 -45 0z"/>
<path d="M210 261 c15 -29 12 -71 -5 -77 -8 -4 -15 -10 -15 -15 0 -6 9 -5 20
1 14 7 20 21 20 45 0 39 -8 65 -21 65 -6 0 -5 -8 1 -19z"/>
</g>
</svg>
