<?xml version="1.0" standalone="no"?>
<!DOCTYPE svg PUBLIC "-//W3C//DTD SVG 20010904//EN"
 "http://www.w3.org/TR/2001/REC-SVG-20010904/DTD/svg10.dtd">
<svg version="1.0" xmlns="http://www.w3.org/2000/svg"
 width="50.000000pt" height="50.000000pt" viewBox="0 0 50.000000 50.000000"
 preserveAspectRatio="xMidYMid meet">

<g transform="translate(0.000000,50.000000) scale(0.100000,-0.100000)"
fill="#000000" stroke="none">
<path d="M50 433 c0 -5 -10 -13 -22 -18 -22 -10 -23 -14 -23 -165 l0 -155 153
-3 c99 -2 152 1 152 8 0 5 -8 10 -17 11 -15 0 -15 2 2 9 l20 9 -20 1 -20 1 20
8 c34 14 46 -6 42 -68 -3 -31 -3 -46 0 -33 4 20 10 22 59 22 51 0 54 -1 54
-25 0 -14 5 -25 10 -25 13 0 13 56 0 80 -7 13 -5 28 6 52 l15 33 -5 -43 c-3
-30 -1 -42 7 -39 9 3 12 49 12 157 0 142 -1 154 -20 164 -11 6 -23 15 -26 19
-3 5 -46 6 -95 3 -108 -6 -98 -6 -211 0 -51 3 -93 2 -93 -3z m188 -156 c2
-134 2 -138 -17 -128 -11 6 -51 11 -90 11 l-70 0 -4 93 -3 92 -2 -102 -2 -102
88 -4 87 -3 -92 -2 -93 -2 0 138 c0 92 3 132 10 122 8 -12 10 -11 10 8 0 22 2
23 88 20 l87 -3 3 -138z m202 88 c0 -42 -3 -55 -15 -55 -14 0 -19 11 -16 38 1
8 -16 12 -59 12 -33 0 -60 -4 -60 -10 0 -5 24 -10 53 -10 52 -1 52 -1 25 -16
-24 -13 -28 -21 -28 -60 0 -30 -4 -44 -12 -43 -37 5 -53 -22 -28 -47 7 -7 3
-14 -15 -22 l-25 -12 0 134 c0 73 3 136 7 139 3 4 44 7 90 7 l83 0 0 -55z m31
-50 c5 4 9 -5 9 -19 0 -24 -2 -25 -20 -14 -11 7 -18 19 -15 26 3 8 6 32 7 55
l2 42 3 -48 c2 -26 8 -45 14 -42z m-69 -52 c1 -50 2 -52 5 -15 5 54 23 55 23
0 0 -44 15 -43 23 2 2 14 5 1 6 -29 0 -30 -4 -70 -11 -88 -11 -29 -16 -33 -50
-33 -21 0 -38 5 -38 11 0 6 -11 25 -25 43 -31 41 -34 67 -5 41 20 -18 20 -17
20 43 0 73 17 83 23 15 3 -47 3 -47 5 10 3 74 21 74 24 0z m-229 -150 c-29 -2
-77 -2 -105 0 -29 2 -6 3 52 3 58 0 81 -1 53 -3z m250 -30 c-13 -2 -35 -2 -50
0 -16 2 -5 4 22 4 28 0 40 -2 28 -4z"/>
<path d="M130 363 c-10 -12 -11 -18 -2 -21 7 -2 12 -19 12 -38 0 -21 4 -33 10
-29 6 3 10 19 10 35 0 15 6 30 12 32 9 3 8 9 -4 21 -20 20 -19 20 -38 0z"/>
<path d="M110 250 c0 -5 18 -10 40 -10 22 0 40 5 40 10 0 6 -18 10 -40 10 -22
0 -40 -4 -40 -10z"/>
<path d="M128 223 c12 -2 32 -2 45 0 12 2 2 4 -23 4 -25 0 -35 -2 -22 -4z"/>
<path d="M118 203 c17 -2 47 -2 65 0 17 2 3 4 -33 4 -36 0 -50 -2 -32 -4z"/>
<path d="M290 380 c0 -5 6 -10 14 -10 8 0 18 5 21 10 3 6 -3 10 -14 10 -12 0
-21 -4 -21 -10z"/>
<path d="M290 320 c0 -5 9 -10 20 -10 11 0 20 5 20 10 0 6 -9 10 -20 10 -11 0
-20 -4 -20 -10z"/>
<path d="M290 290 c0 -5 9 -10 20 -10 11 0 20 5 20 10 0 6 -9 10 -20 10 -11 0
-20 -4 -20 -10z"/>
<path d="M290 260 c0 -5 9 -10 21 -10 11 0 17 5 14 10 -3 6 -13 10 -21 10 -8
0 -14 -4 -14 -10z"/>
</g>
</svg>
