<?xml version="1.0" standalone="no"?>
<!DOCTYPE svg PUBLIC "-//W3C//DTD SVG 20010904//EN"
 "http://www.w3.org/TR/2001/REC-SVG-20010904/DTD/svg10.dtd">
<svg version="1.0" xmlns="http://www.w3.org/2000/svg"
 width="50.000000pt" height="50.000000pt" viewBox="0 0 50.000000 50.000000"
 preserveAspectRatio="xMidYMid meet">

<g transform="translate(0.000000,50.000000) scale(0.100000,-0.100000)"
fill="#000000" stroke="none">
<path d="M213 483 c-24 -16 -30 -47 -13 -58 6 -3 10 -17 10 -31 0 -20 -5 -24
-31 -24 -17 0 -40 5 -52 11 -18 10 -24 8 -44 -17 -27 -34 -28 -47 -7 -79 17
-25 48 -33 59 -15 3 6 21 10 40 10 l34 0 4 -82 3 -83 2 93 2 92 -43 0 c-24 0
-48 -5 -55 -12 -9 -9 -15 -8 -27 8 -18 24 -18 34 0 58 12 16 18 17 27 8 7 -7
31 -12 55 -12 l43 0 0 39 c0 22 -4 43 -10 46 -15 9 -12 25 5 25 8 0 15 5 15
10 0 6 9 10 20 10 11 0 20 -4 20 -10 0 -5 7 -10 15 -10 17 0 20 -16 5 -25 -5
-3 -10 -24 -10 -46 l0 -39 43 0 c24 0 48 5 55 12 9 9 15 8 27 -8 18 -24 18
-34 0 -58 -12 -16 -18 -17 -27 -8 -13 13 -48 16 -48 5 0 -9 48 -33 66 -33 13
0 44 43 44 62 0 7 -10 26 -23 42 -20 25 -26 27 -44 17 -12 -6 -35 -11 -52 -11
-26 0 -31 4 -31 24 0 14 5 28 10 31 18 11 10 42 -15 59 -30 20 -43 20 -72 -1z"/>
<path d="M240 400 c0 -16 5 -30 10 -30 6 0 10 14 10 30 0 17 -4 30 -10 30 -5
0 -10 -13 -10 -30z"/>
<path d="M170 323 c0 -5 11 -9 25 -9 14 -1 25 2 25 7 0 5 -11 9 -25 9 -14 0
-25 -3 -25 -7z"/>
<path d="M240 315 c0 -8 5 -15 10 -15 6 0 10 7 10 15 0 8 -4 15 -10 15 -5 0
-10 -7 -10 -15z"/>
<path d="M280 321 c0 -5 11 -8 25 -7 33 1 33 16 0 16 -14 0 -25 -4 -25 -9z"/>
<path d="M282 183 c-1 -66 2 -114 8 -118 15 -9 12 -25 -5 -25 -8 0 -15 -4 -15
-10 0 -5 -9 -10 -20 -10 -11 0 -20 5 -20 10 0 6 -7 10 -15 10 -18 0 -19 11 -2
29 10 11 9 13 -3 9 -25 -8 -18 -48 12 -66 24 -14 30 -14 54 -2 33 18 40 35 25
63 -6 12 -12 67 -14 122 l-3 100 -2 -112z"/>
<path d="M240 180 c0 -53 4 -90 10 -90 6 0 10 37 10 90 0 53 -4 90 -10 90 -6
0 -10 -37 -10 -90z"/>
<path d="M240 60 c0 -5 5 -10 10 -10 6 0 10 5 10 10 0 6 -4 10 -10 10 -5 0
-10 -4 -10 -10z"/>
</g>
</svg>
